<svg xmlns="http://www.w3.org/2000/svg" width="37" height="36" viewBox="0 0 37 36" fill="none"><path d="M34.9678 12.287C34.9678 12.287 34.9678 12.287 34.9678 12.1852C33.7456 8.91657 31.5175 6.09091 28.5851 4.09043C25.6527 2.08995 22.1574 1.01119 18.572 1.00009C14.9867 0.988979 11.4844 2.04606 8.53879 4.02833C5.59323 6.01059 3.34661 8.82238 2.10284 12.0833C2.03549 12.2116 1.9883 12.3488 1.96284 12.4906C1.32933 14.253 1.00401 16.1057 1.00034 17.9721C0.991682 20.4498 1.54262 22.8993 2.61444 25.1485C3.68627 27.3977 5.25298 29.392 7.2045 30.9913C9.15603 32.5906 11.445 33.7562 13.9107 34.406C16.3763 35.0558 18.9587 35.1742 21.4766 34.7528C23.9944 34.3313 26.3866 33.3804 28.485 31.9667C30.5833 30.553 32.337 28.7109 33.6228 26.5697C34.9086 24.4286 35.6954 22.0404 35.9277 19.5729C36.1601 17.1054 35.8325 14.6185 34.9678 12.287ZM18.5003 4.39574C20.9554 4.39818 23.3667 5.02665 25.4922 6.2181C27.6177 7.40955 29.3828 9.12208 30.6103 11.1839H28.5103C27.99 10.6292 27.3496 10.1928 26.6351 9.90597C25.9206 9.61911 25.1496 9.48886 24.3772 9.52453C23.6048 9.5602 22.85 9.76091 22.1668 10.1123C21.4837 10.4637 20.889 10.9571 20.4253 11.5572C19.8117 11.3228 19.1598 11.1964 18.5003 11.1839C17.8409 11.1964 17.189 11.3228 16.5753 11.5572C16.1117 10.9571 15.517 10.4637 14.8338 10.1123C14.1507 9.76091 13.3959 9.5602 12.6235 9.52453C11.8511 9.48886 11.08 9.61911 10.3656 9.90597C9.65106 10.1928 9.01073 10.6292 8.49035 11.1839H6.39034C7.61788 9.12208 9.38295 7.40955 11.5085 6.2181C13.634 5.02665 16.0453 4.39818 18.5003 4.39574ZM26.3753 14.578C26.3753 14.9136 26.2727 15.2417 26.0804 15.5208C25.8881 15.7999 25.6148 16.0174 25.295 16.1458C24.9753 16.2743 24.6234 16.3079 24.2839 16.2424C23.9445 16.1769 23.6327 16.0153 23.3879 15.778C23.1432 15.5406 22.9765 15.2382 22.909 14.9091C22.8414 14.5799 22.8761 14.2386 23.0086 13.9285C23.141 13.6185 23.3653 13.3534 23.6531 13.1669C23.9409 12.9805 24.2792 12.8809 24.6253 12.8809C25.0895 12.8809 25.5346 13.0597 25.8628 13.378C26.191 13.6962 26.3753 14.1279 26.3753 14.578ZM14.1253 14.578C14.1253 14.9136 14.0227 15.2417 13.8304 15.5208C13.6381 15.7999 13.3648 16.0174 13.045 16.1458C12.7253 16.2743 12.3734 16.3079 12.0339 16.2424C11.6945 16.1769 11.3827 16.0153 11.1379 15.778C10.8932 15.5406 10.7265 15.2382 10.659 14.9091C10.5914 14.5799 10.6261 14.2386 10.7586 13.9285C10.891 13.6185 11.1153 13.3534 11.4031 13.1669C11.6909 12.9805 12.0292 12.8809 12.3753 12.8809C12.8395 12.8809 13.2846 13.0597 13.6128 13.378C13.941 13.6962 14.1253 14.1279 14.1253 14.578ZM18.5003 31.5484C14.7873 31.5484 11.2264 30.118 8.60085 27.572C5.97534 25.0259 4.50034 21.5727 4.50034 17.9721C4.50812 16.8269 4.66093 15.687 4.95535 14.578H7.12534C7.08357 15.9282 7.59664 17.2393 8.55167 18.2227C9.50669 19.2061 10.8255 19.7813 12.2178 19.8218C13.6102 19.8623 14.9622 19.3648 15.9763 18.4387C16.9904 17.5125 17.5836 16.2337 17.6253 14.8834C17.8914 14.7345 18.1932 14.6561 18.5003 14.6561C18.8075 14.6561 19.1093 14.7345 19.3753 14.8834C19.4171 16.2337 20.0103 17.5125 21.0244 18.4387C22.0385 19.3648 23.3905 19.8623 24.7828 19.8218C26.1752 19.7813 27.494 19.2061 28.449 18.2227C29.4041 17.2393 29.9171 15.9282 29.8753 14.578H32.0453C32.3398 15.687 32.4926 16.8269 32.5003 17.9721C32.5003 21.5727 31.0253 25.0259 28.3998 27.572C25.7743 30.118 22.2134 31.5484 18.5003 31.5484ZM22.6303 21.7565C21.4605 22.6711 20.0031 23.1699 18.5003 23.1699C16.9976 23.1699 15.5402 22.6711 14.3703 21.7565C14.013 21.4684 13.5522 21.3298 13.0895 21.3712C12.6267 21.4126 12.1999 21.6305 11.9028 21.9771C11.6058 22.3236 11.4629 22.7704 11.5056 23.2192C11.5482 23.6679 11.773 24.0818 12.1303 24.3699C13.9177 25.8168 16.1721 26.6094 18.5003 26.6094C20.8286 26.6094 23.083 25.8168 24.8703 24.3699C25.2277 24.0818 25.4525 23.6679 25.4951 23.2192C25.5378 22.7704 25.3949 22.3236 25.0978 21.9771C24.9508 21.8055 24.7703 21.6636 24.5667 21.5597C24.3631 21.4557 24.1403 21.3917 23.9112 21.3712C23.4485 21.3298 22.9877 21.4684 22.6303 21.7565Z" fill="white"></path></svg>