<svg xmlns="http://www.w3.org/2000/svg" width="49" height="49" viewBox="0 0 49 49" fill="none"><path d="M24.5 0C19.8363 0.00886091 15.2758 1.37376 11.374 3.92843C7.47224 6.48311 4.39757 10.1173 2.52452 14.3884C0.65147 18.6594 0.0608828 23.383 0.824694 27.9838C1.58851 32.5845 3.67375 36.8639 6.82643 40.3005C9.07812 42.7413 11.811 44.6892 14.8527 46.0215C17.8945 47.3538 21.1792 48.0416 24.5 48.0416C27.8208 48.0416 31.1055 47.3538 34.1473 46.0215C37.189 44.6892 39.9219 42.7413 42.1736 40.3005C45.3263 36.8639 47.4115 32.5845 48.1753 27.9838C48.9391 23.383 48.3485 18.6594 46.4755 14.3884C44.6024 10.1173 41.5278 6.48311 37.626 3.92843C33.7242 1.37376 29.1637 0.00886091 24.5 0ZM24.5 43.2822C19.5189 43.2746 14.7348 41.3352 11.1547 37.8719C12.2416 35.2258 14.0907 32.9625 16.4669 31.3697C18.8432 29.7769 21.6393 28.9265 24.5 28.9265C27.3607 28.9265 30.1568 29.7769 32.5331 31.3697C34.9093 32.9625 36.7584 35.2258 37.8453 37.8719C34.2651 41.3352 29.4811 43.2746 24.5 43.2822ZM19.6909 19.2365C19.6909 18.2854 19.9729 17.3556 20.5014 16.5647C21.0298 15.7739 21.7809 15.1575 22.6596 14.7935C23.5384 14.4295 24.5053 14.3342 25.4382 14.5198C26.3711 14.7054 27.228 15.1634 27.9006 15.836C28.5731 16.5085 29.0312 17.3654 29.2167 18.2983C29.4023 19.2312 29.3071 20.1982 28.9431 21.0769C28.5791 21.9557 27.9627 22.7068 27.1718 23.2352C26.381 23.7636 25.4512 24.0457 24.5 24.0457C23.2245 24.0457 22.0013 23.539 21.0994 22.6371C20.1975 21.7352 19.6909 20.512 19.6909 19.2365ZM41.1156 33.6639C38.9672 29.9892 35.6606 27.1308 31.7137 25.5365C32.938 24.1482 33.7358 22.4362 34.0112 20.6058C34.2866 18.7754 34.028 16.9044 33.2665 15.2173C32.5049 13.5302 31.2727 12.0987 29.7177 11.0946C28.1627 10.0905 26.351 9.55635 24.5 9.55635C22.649 9.55635 20.8373 10.0905 19.2823 11.0946C17.7273 12.0987 16.4951 13.5302 15.7335 15.2173C14.972 16.9044 14.7134 18.7754 14.9888 20.6058C15.2642 22.4362 16.062 24.1482 17.2863 25.5365C13.3394 27.1308 10.0328 29.9892 7.88444 33.6639C6.17225 30.7474 5.2676 27.4276 5.26346 24.0457C5.26346 18.9438 7.29016 14.0509 10.8977 10.4434C14.5053 6.83584 19.3982 4.80913 24.5 4.80913C29.6018 4.80913 34.4947 6.83584 38.1023 10.4434C41.7098 14.0509 43.7365 18.9438 43.7365 24.0457C43.7324 27.4276 42.8277 30.7474 41.1156 33.6639Z" fill="#666666"></path></svg>