<svg xmlns="http://www.w3.org/2000/svg" width="28" height="32" viewBox="0 0 28 32" fill="none"><path d="M20.0419 19H7.70858C7.2997 19 6.90757 19.1668 6.61845 19.4637C6.32934 19.7607 6.16691 20.1634 6.16691 20.5833C6.16691 21.0033 6.32934 21.406 6.61845 21.7029C6.90757 21.9998 7.2997 22.1667 7.70858 22.1667H20.0419C20.4508 22.1667 20.8429 21.9998 21.132 21.7029C21.4212 21.406 21.5836 21.0033 21.5836 20.5833C21.5836 20.1634 21.4212 19.7607 21.132 19.4637C20.8429 19.1668 20.4508 19 20.0419 19ZM20.0419 12.6667H10.7919C10.383 12.6667 9.99091 12.8335 9.70179 13.1304C9.41267 13.4273 9.25024 13.8301 9.25024 14.25C9.25024 14.6699 9.41267 15.0727 9.70179 15.3696C9.99091 15.6665 10.383 15.8333 10.7919 15.8333H20.0419C20.4508 15.8333 20.8429 15.6665 21.132 15.3696C21.4212 15.0727 21.5836 14.6699 21.5836 14.25C21.5836 13.8301 21.4212 13.4273 21.132 13.1304C20.8429 12.8335 20.4508 12.6667 20.0419 12.6667ZM26.2086 3.16667H21.5836V1.58333C21.5836 1.16341 21.4212 0.76068 21.132 0.463748C20.8429 0.166815 20.4508 0 20.0419 0C19.633 0 19.2409 0.166815 18.9518 0.463748C18.6627 0.76068 18.5002 1.16341 18.5002 1.58333V3.16667H15.4169V1.58333C15.4169 1.16341 15.2545 0.76068 14.9654 0.463748C14.6762 0.166815 14.2841 0 13.8752 0C13.4664 0 13.0742 0.166815 12.7851 0.463748C12.496 0.76068 12.3336 1.16341 12.3336 1.58333V3.16667H9.25024V1.58333C9.25024 1.16341 9.08782 0.76068 8.7987 0.463748C8.50958 0.166815 8.11745 0 7.70858 0C7.2997 0 6.90757 0.166815 6.61845 0.463748C6.32934 0.76068 6.16691 1.16341 6.16691 1.58333V3.16667H1.54191C1.13304 3.16667 0.740906 3.33348 0.451788 3.63041C0.162669 3.92735 0.000244141 4.33007 0.000244141 4.75V26.9167C0.000244141 28.1764 0.48752 29.3846 1.35488 30.2754C2.22223 31.1662 3.39862 31.6667 4.62524 31.6667H23.1252C24.3519 31.6667 25.5283 31.1662 26.3956 30.2754C27.263 29.3846 27.7502 28.1764 27.7502 26.9167V4.75C27.7502 4.33007 27.5878 3.92735 27.2987 3.63041C27.0096 3.33348 26.6175 3.16667 26.2086 3.16667ZM24.6669 26.9167C24.6669 27.3366 24.5045 27.7393 24.2154 28.0363C23.9262 28.3332 23.5341 28.5 23.1252 28.5H4.62524C4.21637 28.5 3.82424 28.3332 3.53512 28.0363C3.246 27.7393 3.08358 27.3366 3.08358 26.9167V6.33333H6.16691V7.91667C6.16691 8.33659 6.32934 8.73932 6.61845 9.03625C6.90757 9.33318 7.2997 9.5 7.70858 9.5C8.11745 9.5 8.50958 9.33318 8.7987 9.03625C9.08782 8.73932 9.25024 8.33659 9.25024 7.91667V6.33333H12.3336V7.91667C12.3336 8.33659 12.496 8.73932 12.7851 9.03625C13.0742 9.33318 13.4664 9.5 13.8752 9.5C14.2841 9.5 14.6762 9.33318 14.9654 9.03625C15.2545 8.73932 15.4169 8.33659 15.4169 7.91667V6.33333H18.5002V7.91667C18.5002 8.33659 18.6627 8.73932 18.9518 9.03625C19.2409 9.33318 19.633 9.5 20.0419 9.5C20.4508 9.5 20.8429 9.33318 21.132 9.03625C21.4212 8.73932 21.5836 8.33659 21.5836 7.91667V6.33333H24.6669V26.9167Z" fill="white"></path></svg>