<svg xmlns="http://www.w3.org/2000/svg" width="31" height="30" viewBox="0 0 31 30" fill="none"><path d="M29.3749 3H24.7499V1.5C24.7499 1.10218 24.5875 0.720644 24.2984 0.43934C24.0093 0.158035 23.6171 0 23.2082 0H7.79158C7.38271 0 6.99058 0.158035 6.70146 0.43934C6.41234 0.720644 6.24992 1.10218 6.24992 1.5V3H1.62492C1.21604 3 0.823914 3.15804 0.534796 3.43934C0.245677 3.72064 0.083252 4.10218 0.083252 4.5V9C0.083252 10.5913 0.732952 12.1174 1.88943 13.2426C3.0459 14.3679 4.61442 15 6.24992 15H8.62408C10.0186 16.5137 11.8987 17.5235 13.9582 17.865V21H12.4166C11.19 21 10.0136 21.4741 9.14621 22.318C8.27886 23.1619 7.79158 24.3065 7.79158 25.5V28.5C7.79158 28.8978 7.95401 29.2794 8.24313 29.5607C8.53225 29.842 8.92437 30 9.33325 30H21.6666C22.0755 30 22.4676 29.842 22.7567 29.5607C23.0458 29.2794 23.2082 28.8978 23.2082 28.5V25.5C23.2082 24.3065 22.721 23.1619 21.8536 22.318C20.9863 21.4741 19.8099 21 18.5832 21H17.0416V17.865C19.1012 17.5235 20.9813 16.5137 22.3757 15H24.7499C26.3854 15 27.9539 14.3679 29.1104 13.2426C30.2669 12.1174 30.9166 10.5913 30.9166 9V4.5C30.9166 4.10218 30.7542 3.72064 30.465 3.43934C30.1759 3.15804 29.7838 3 29.3749 3ZM6.24992 12C5.43217 12 4.64791 11.6839 4.06967 11.1213C3.49143 10.5587 3.16658 9.79565 3.16658 9V6H6.24992V9C6.25331 10.0226 6.43578 11.0371 6.7895 12H6.24992ZM18.5832 24C18.9921 24 19.3843 24.158 19.6734 24.4393C19.9625 24.7206 20.1249 25.1022 20.1249 25.5V27H10.8749V25.5C10.8749 25.1022 11.0373 24.7206 11.3265 24.4393C11.6156 24.158 12.0077 24 12.4166 24H18.5832ZM21.6666 9C21.6666 10.5913 21.0169 12.1174 19.8604 13.2426C18.7039 14.3679 17.1354 15 15.4999 15C13.8644 15 12.2959 14.3679 11.1394 13.2426C9.98295 12.1174 9.33325 10.5913 9.33325 9V3H21.6666V9ZM27.8332 9C27.8332 9.79565 27.5084 10.5587 26.9302 11.1213C26.3519 11.6839 25.5677 12 24.7499 12H24.2103C24.564 11.0371 24.7465 10.0226 24.7499 9V6H27.8332V9Z" fill="white"></path></svg>