<svg xmlns="http://www.w3.org/2000/svg" width="32" height="33" viewBox="0 0 32 33" fill="none"><path d="M30.0831 26.0067H26.9164V21.1317C26.9164 20.7007 26.7496 20.2874 26.4527 19.9826C26.1557 19.6779 25.753 19.5067 25.3331 19.5067H17.4164V15.1029L19.2056 16.0617C19.4665 16.2018 19.7603 16.2644 20.054 16.2425C20.3477 16.2207 20.6296 16.1152 20.8681 15.938C21.1066 15.7607 21.2923 15.5187 21.4041 15.2391C21.516 14.9596 21.5497 14.6536 21.5014 14.3554L20.8681 10.5042L23.5914 7.75793C23.7977 7.5512 23.945 7.2906 24.0176 7.00423C24.0901 6.71786 24.0851 6.41659 24.0031 6.13293C23.9113 5.84413 23.7425 5.5875 23.5158 5.39219C23.2891 5.19687 23.0136 5.07068 22.7206 5.02793L18.9998 4.42668L17.2581 0.916679C17.1284 0.641939 16.926 0.410235 16.674 0.248111C16.422 0.0859872 16.1305 0 15.8331 0C15.5356 0 15.2442 0.0859872 14.9922 0.248111C14.7402 0.410235 14.5377 0.641939 14.4081 0.916679L12.6664 4.42668L8.88226 4.99543C8.58922 5.03818 8.31372 5.16437 8.08703 5.35969C7.86033 5.555 7.69153 5.81163 7.59976 6.10043C7.51772 6.38409 7.5127 6.68535 7.58525 6.97172C7.6578 7.2581 7.80515 7.5187 8.01142 7.72543L10.7981 10.5042L10.1648 14.3554C10.1165 14.6536 10.1502 14.9596 10.2621 15.2391C10.3739 15.5187 10.5595 15.7607 10.798 15.938C11.0365 16.1152 11.3185 16.2207 11.6122 16.2425C11.9059 16.2644 12.1997 16.2018 12.4606 16.0617L14.2498 15.1029V19.5067H6.33309C5.91316 19.5067 5.51044 19.6779 5.2135 19.9826C4.91657 20.2874 4.74976 20.7007 4.74976 21.1317V26.0067H1.58309C1.16316 26.0067 0.760436 26.1779 0.463503 26.4826C0.166571 26.7874 -0.000244141 27.2007 -0.000244141 27.6317V30.8817C-0.000244141 31.3127 0.166571 31.726 0.463503 32.0307C0.760436 32.3355 1.16316 32.5067 1.58309 32.5067C2.00302 32.5067 2.40574 32.3355 2.70267 32.0307C2.99961 31.726 3.16642 31.3127 3.16642 30.8817V29.2567H9.49976V30.8817C9.49975 31.3127 9.66657 31.726 9.9635 32.0307C10.2604 32.3355 10.6632 32.5067 11.0831 32.5067C11.503 32.5067 11.9057 32.3355 12.2027 32.0307C12.4996 31.726 12.6664 31.3127 12.6664 30.8817V27.6317C12.6664 27.2007 12.4996 26.7874 12.2027 26.4826C11.9057 26.1779 11.503 26.0067 11.0831 26.0067H7.91642V22.7567H23.7498V26.0067H20.5831C20.1632 26.0067 19.7604 26.1779 19.4635 26.4826C19.1666 26.7874 18.9998 27.2007 18.9998 27.6317V30.8817C18.9998 31.3127 19.1666 31.726 19.4635 32.0307C19.7604 32.3355 20.1632 32.5067 20.5831 32.5067C21.003 32.5067 21.4057 32.3355 21.7027 32.0307C21.9996 31.726 22.1664 31.3127 22.1664 30.8817V29.2567H28.4998V30.8817C28.4998 31.3127 28.6666 31.726 28.9635 32.0307C29.2604 32.3355 29.6632 32.5067 30.0831 32.5067C30.503 32.5067 30.9057 32.3355 31.2027 32.0307C31.4996 31.726 31.6664 31.3127 31.6664 30.8817V27.6317C31.6664 27.2007 31.4996 26.7874 31.2027 26.4826C30.9057 26.1779 30.503 26.0067 30.0831 26.0067ZM15.8331 10.7804C15.5732 10.7818 15.3176 10.8487 15.0889 10.9754L13.8223 11.6579L14.0598 10.1954C14.1013 9.93674 14.0812 9.67157 14.0013 9.42256C13.9213 9.17355 13.7838 8.94809 13.6006 8.76543L12.5714 7.72543L13.9964 7.51418C14.2514 7.47922 14.4942 7.38105 14.7038 7.22816C14.9135 7.07527 15.0837 6.87225 15.1998 6.63668L15.8331 5.30418L16.4664 6.63668C16.5825 6.87225 16.7527 7.07527 16.9624 7.22816C17.172 7.38105 17.4148 7.47922 17.6698 7.51418L19.0948 7.72543L18.0656 8.76543C17.8823 8.94809 17.7449 9.17355 17.6649 9.42256C17.5849 9.67157 17.5649 9.93674 17.6064 10.1954L17.8439 11.6579L16.5773 10.9754C16.3486 10.8487 16.093 10.7818 15.8331 10.7804Z" fill="white"></path></svg>